<svg xmlns="http://www.w3.org/2000/svg" version="1.1" xmlns:xlink="http://www.w3.org/1999/xlink" xmlns:svgjs="http://svgjs.com/svgjs" width="512" height="512" x="0" y="0" viewBox="0 0 512 512" style="enable-background:new 0 0 512 512" xml:space="preserve" class=""><g><path d="m406.372 386.154 23.15-200.477H82.478l23.15 200.477z" style="" fill="#ff9017" data-original="#ff9017"></path><path d="M393.411 185.677 370.26 386.154h36.112l23.15-200.477z" style="" fill="#ed7d0c" data-original="#ed7d0c"></path><path d="m411.879 185.677 9.613-83.257H90.508l9.614 83.257zM123.273 386.154l13.663 118.323h238.128l13.664-118.323z" style="" fill="#e0e0e0" data-original="#e0e0e0"></path><path d="m385.381 102.42-9.614 83.257h36.112l9.613-83.257zM352.617 386.154l-13.664 118.323h36.111l13.664-118.323z" style="" fill="#c6c6c6" data-original="#c6c6c6"></path><path d="M69.985 54.458h372.027v47.966H69.985z" style="" fill="#494949" data-original="#494949"></path><path d="M421.492 54.455H90.508l27.857-46.932h275.27zM396.874 54.458h45.139v47.966h-45.139z" style="" fill="#303030" data-original="#303030" class=""></path><path d="M393.635 7.523h-45.139l27.857 46.932h45.139z" style="" fill="#232323" data-original="#232323"></path><ellipse cx="256" cy="282.321" rx="43.283" ry="52.713" style="" fill="#7c3d1e" data-original="#7c3d1e"></ellipse><path d="M256 229.607c-4.732 0-9.281.938-13.542 2.646 17.268 6.925 29.738 26.716 29.738 50.065 0 23.35-12.47 43.141-29.738 50.066 4.261 1.709 8.81 2.647 13.542 2.647 23.903 0 43.279-23.601 43.279-52.713S279.903 229.607 256 229.607z" style="" fill="#602e18" data-original="#602e18"></path><path d="M442.016 46.932h-16.239L400.104 3.683A7.517 7.517 0 0 0 393.635 0h-275.27a7.521 7.521 0 0 0-6.469 3.683l-25.67 43.248h-16.24a7.523 7.523 0 0 0-7.523 7.523v47.966a7.523 7.523 0 0 0 7.523 7.523h13.818l7.876 68.209h-9.201a7.52 7.52 0 0 0-5.616 2.518 7.53 7.53 0 0 0-1.858 5.868l23.15 200.477a7.524 7.524 0 0 0 7.474 6.661h10.939l12.895 111.662a7.524 7.524 0 0 0 7.474 6.661h45.633a7.523 7.523 0 1 0 0-15.046h-38.928l-11.926-103.277h248.572l-11.926 103.277H212.661a7.523 7.523 0 1 0 0 15.046h162.404a7.521 7.521 0 0 0 7.473-6.661l12.894-111.662h10.939a7.52 7.52 0 0 0 7.473-6.661l23.15-200.477a7.525 7.525 0 0 0-7.474-8.386h-9.201l7.877-68.209h13.819a7.522 7.522 0 0 0 7.523-7.523V54.455a7.521 7.521 0 0 0-7.522-7.523zm-36.842 131.221h-43.316a7.522 7.522 0 0 0-7.523 7.523 7.522 7.522 0 0 0 7.523 7.523h59.221L399.666 378.63H112.333L90.92 193.2h240.846a7.522 7.522 0 0 0 7.523-7.523 7.522 7.522 0 0 0-7.523-7.523h-224.94l-7.876-68.209h314.1l-7.876 68.208zm29.318-83.256H77.509V61.978H137.1a7.523 7.523 0 1 0 0-15.046h-33.379l18.926-31.885h266.705l18.925 31.885H167.193a7.523 7.523 0 1 0 0 15.046h267.298v32.919h.001z" fill="#000000" data-original="#000000" class=""></path><path d="M262.931 222.659a7.576 7.576 0 0 0-.98-.148 43.105 43.105 0 0 0-5.951-.427c-28.013 0-50.804 27.022-50.804 60.236 0 33.206 22.779 60.223 50.784 60.236l.014.001.012-.001c28.01-.004 50.798-27.023 50.798-60.236 0-30.425-19.128-55.639-43.873-59.661zm-42.687 59.661c0-21.036 11.433-38.761 26.859-43.772-6.168 13.753-8.661 33.283 5.711 51.956 10.493 13.634 3.252 29.858-.73 36.729-17.881-2.475-31.84-21.67-31.84-44.913zm49.851 41.524c.328-.924.646-1.867.939-2.846 4.44-14.833 2.261-28.55-6.297-39.67-13.842-17.984-5.174-35.654-.366-42.933 15.69 4.776 27.386 22.653 27.386 43.926 0 18.593-8.935 34.595-21.662 41.523z" fill="#000000" data-original="#000000" class=""></path></g></svg>