<svg xmlns="http://www.w3.org/2000/svg" version="1.1" xmlns:xlink="http://www.w3.org/1999/xlink" xmlns:svgjs="http://svgjs.com/svgjs" width="512" height="512" x="0" y="0" viewBox="0 0 682.667 682.667" style="enable-background:new 0 0 512 512" xml:space="preserve" class=""><g><defs><clipPath id="a" clipPathUnits="userSpaceOnUse"><path d="M0 512h512V0H0Z" fill="#000000" data-original="#000000"></path></clipPath></defs><g clip-path="url(#a)" transform="matrix(1.33333 0 0 -1.33333 0 682.667)"><path d="M0 0c-3.968.355-7.729-.393-11.016-1.969C-16.19-4.45-22.337-3.231-26.559.654a24.539 24.539 0 0 1-17.723 6.48c-12.471-.521-22.752-10.575-23.527-23.033-.891-14.317 10.457-26.205 24.581-26.205h41.289c12.446 0 22.374 10.776 20.962 23.506C17.932-8.758 9.861-.882 0 0" style="fill-opacity:1;fill-rule:nonzero;stroke:none" transform="translate(444.318 382.272)" fill="#ff9c43" data-original="#ff9c43"></path><path d="M0 0v12.221" style="stroke-width:15;stroke-linecap:round;stroke-linejoin:round;stroke-miterlimit:10;stroke-dasharray:none;stroke-opacity:1" transform="translate(124.35 444.406)" fill="none" stroke="#000000" stroke-width="15" stroke-linecap="round" stroke-linejoin="round" stroke-miterlimit="10" stroke-dasharray="none" stroke-opacity="" data-original="#000000" class=""></path><path d="m0 0-4.374 11.411" style="stroke-width:15;stroke-linecap:round;stroke-linejoin:round;stroke-miterlimit:10;stroke-dasharray:none;stroke-opacity:1" transform="translate(336.209 472.297)" fill="none" stroke="#000000" stroke-width="15" stroke-linecap="round" stroke-linejoin="round" stroke-miterlimit="10" stroke-dasharray="none" stroke-opacity="" data-original="#000000" class=""></path><path d="M0 0h-6.193c-6.913 0-12.518 5.604-12.518 12.518v132.997h31.229V12.518C12.518 5.604 6.914 0 0 0" style="fill-opacity:1;fill-rule:nonzero;stroke:none" transform="translate(81.073 28.43)" fill="#cc966a" data-original="#cc966a"></path><path d="M0 0h-6.193c-6.913 0-12.518 5.604-12.518 12.518v132.997h31.229V12.518C12.518 5.604 6.914 0 0 0" style="fill-opacity:1;fill-rule:nonzero;stroke:none" transform="translate(437.632 28.292)" fill="#cc966a" data-original="#cc966a"></path><path d="M0 0h-424.678c-11.096 0-20.092 8.996-20.092 20.093v145.959c0 11.096 8.996 20.093 20.092 20.093H0c11.096 0 20.092-8.997 20.092-20.093V20.093C20.092 8.996 11.096 0 0 0" style="fill-opacity:1;fill-rule:nonzero;stroke:none" transform="translate(468.352 89.42)" fill="#345863" data-original="#345863"></path><path d="M0 0h-31.56v-166.052c0-11.096-8.995-20.093-20.091-20.093H0c11.096 0 20.092 8.997 20.092 20.093v145.959C20.092-8.996 11.096 0 0 0" style="fill-opacity:1;fill-rule:nonzero;stroke:none" transform="translate(468.352 275.565)" fill="#1e4751" data-original="#1e4751"></path><path d="M0 0c0-11.456-4.615-23.403-12.804-31.417" style="stroke-width:15;stroke-linecap:round;stroke-linejoin:round;stroke-miterlimit:10;stroke-dasharray:none;stroke-opacity:1" transform="translate(64.47 307.344)" fill="none" stroke="#000000" stroke-width="15" stroke-linecap="round" stroke-linejoin="round" stroke-miterlimit="10" stroke-dasharray="none" stroke-opacity="" data-original="#000000" class=""></path><path d="M0 0c0-11.456 4.615-23.403 12.803-31.417" style="stroke-width:15;stroke-linecap:round;stroke-linejoin:round;stroke-miterlimit:10;stroke-dasharray:none;stroke-opacity:1" transform="translate(181.193 307.344)" fill="none" stroke="#000000" stroke-width="15" stroke-linecap="round" stroke-linejoin="round" stroke-miterlimit="10" stroke-dasharray="none" stroke-opacity="" data-original="#000000" class=""></path><path d="M0 0c0-11.456-4.615-23.403-12.804-31.417" style="stroke-width:15;stroke-linecap:round;stroke-linejoin:round;stroke-miterlimit:10;stroke-dasharray:none;stroke-opacity:1" transform="translate(318.098 307.344)" fill="none" stroke="#000000" stroke-width="15" stroke-linecap="round" stroke-linejoin="round" stroke-miterlimit="10" stroke-dasharray="none" stroke-opacity="" data-original="#000000" class=""></path><path d="M0 0c0-11.456 4.615-23.403 12.803-31.417h.001" style="stroke-width:15;stroke-linecap:round;stroke-linejoin:round;stroke-miterlimit:10;stroke-dasharray:none;stroke-opacity:1" transform="translate(434.821 307.344)" fill="none" stroke="#000000" stroke-width="15" stroke-linecap="round" stroke-linejoin="round" stroke-miterlimit="10" stroke-dasharray="none" stroke-opacity="" data-original="#000000" class=""></path><path d="M0 0c-14.263 0-25.826 11.563-25.826 25.825v35.206h51.652V25.825C25.826 11.563 14.263 0 0 0" style="fill-opacity:1;fill-rule:nonzero;stroke:none" transform="translate(49.407 188.848)" fill="#e02b3d" data-original="#e02b3d"></path><path d="M0 0c-14.263 0-25.826 11.563-25.826 25.825v35.206h51.652V25.825C25.826 11.563 14.263 0 0 0" style="fill-opacity:1;fill-rule:nonzero;stroke:none" transform="translate(101.059 188.848)" fill="#f43b45" data-original="#f43b45"></path><path d="M0 0c-14.263 0-25.826 11.563-25.826 25.825v35.206h51.652V25.825C25.826 11.563 14.263 0 0 0" style="fill-opacity:1;fill-rule:nonzero;stroke:none" transform="translate(152.71 188.848)" fill="#e02b3d" data-original="#e02b3d"></path><path d="M0 0c-14.263 0-25.826 11.563-25.826 25.825v35.206h51.652V25.825C25.826 11.563 14.263 0 0 0" style="fill-opacity:1;fill-rule:nonzero;stroke:none" transform="translate(204.361 188.848)" fill="#f43b45" data-original="#f43b45"></path><path d="M0 0c-14.263 0-25.826 11.563-25.826 25.825v35.206h51.652V25.825C25.826 11.563 14.263 0 0 0" style="fill-opacity:1;fill-rule:nonzero;stroke:none" transform="translate(256.013 188.848)" fill="#e02b3d" data-original="#e02b3d"></path><path d="M0 0c-14.263 0-25.826 11.563-25.826 25.825v35.206h51.651V25.825C25.825 11.563 14.263 0 0 0" style="fill-opacity:1;fill-rule:nonzero;stroke:none" transform="translate(307.664 188.848)" fill="#f43b45" data-original="#f43b45"></path><path d="M0 0c-14.263 0-25.826 11.563-25.826 25.825v35.206h51.652V25.825C25.826 11.563 14.263 0 0 0" style="fill-opacity:1;fill-rule:nonzero;stroke:none" transform="translate(359.315 188.848)" fill="#e02b3d" data-original="#e02b3d"></path><path d="M0 0c-14.263 0-25.826 11.563-25.826 25.825v35.206h51.652V25.825C25.826 11.563 14.263 0 0 0" style="fill-opacity:1;fill-rule:nonzero;stroke:none" transform="translate(410.966 188.848)" fill="#f43b45" data-original="#f43b45"></path><path d="M0 0c-14.263 0-25.826 11.563-25.826 25.825v35.206h51.652V25.825C25.826 11.563 14.263 0 0 0" style="fill-opacity:1;fill-rule:nonzero;stroke:none" transform="translate(462.618 188.848)" fill="#e02b3d" data-original="#e02b3d"></path><path d="M0 0c-52.329 0-94.75-44.255-94.75-98.847H94.749C94.749-44.255 52.328 0 0 0" style="fill-opacity:1;fill-rule:nonzero;stroke:none" transform="translate(124.35 444.406)" fill="#ededed" data-original="#ededed" class=""></path><path d="M0 0a91.14 91.14 0 0 1-25.75-3.696c39.814-11.703 68.999-49.87 68.999-95.151h51.5C94.749-44.255 52.329 0 0 0" style="fill-opacity:1;fill-rule:nonzero;stroke:none" transform="translate(124.35 444.406)" fill="#d6d6d6" data-original="#d6d6d6"></path><path d="M0 0h-146.122a11.79 11.79 0 0 0-11.414 8.837l-5.242 20.247H16.657L11.415 8.837A11.792 11.792 0 0 0 0 0" style="fill-opacity:1;fill-rule:nonzero;stroke:none" transform="translate(197.41 307.344)" fill="#ededed" data-original="#ededed" class=""></path><path d="M0 0h-190.456c-6.267 0-11.347 5.081-11.347 11.348s5.08 11.347 11.347 11.347H0c6.267 0 11.348-5.08 11.348-11.347C11.348 5.081 6.267 0 0 0" style="fill-opacity:1;fill-rule:nonzero;stroke:none" transform="translate(219.577 334.212)" fill="#d6d6d6" data-original="#d6d6d6"></path><path d="M0 0h-146.122a11.792 11.792 0 0 0-11.415 8.837l-5.241 20.247H16.656L11.415 8.837A11.792 11.792 0 0 0 0 0" style="fill-opacity:1;fill-rule:nonzero;stroke:none" transform="translate(446.819 307.344)" fill="#ededed" data-original="#ededed" class=""></path><path d="M0 0h-190.456c-6.267 0-11.347 5.081-11.347 11.348s5.08 11.347 11.347 11.347H0c6.267 0 11.348-5.08 11.348-11.347C11.348 5.081 6.267 0 0 0" style="fill-opacity:1;fill-rule:nonzero;stroke:none" transform="translate(468.986 334.212)" fill="#d6d6d6" data-original="#d6d6d6"></path><path d="M0 0a3.369 3.369 0 0 1 1.73 4.793C-21.771 46.52-71.397 66.342-115.631 49.388c-45.427-17.411-69.16-67.474-56.575-115.39z" style="fill-opacity:1;fill-rule:nonzero;stroke:none" transform="translate(451.84 422.91)" fill="#ededed" data-original="#ededed" class=""></path><path d="M0 0c-23.5 41.727-73.127 61.549-117.361 44.595a91.05 91.05 0 0 1-25.713-15.074c38.388 4.616 76.983-15.608 96.418-51.533L-1.73-4.793A3.368 3.368 0 0 1 0 0" style="fill-opacity:1;fill-rule:nonzero;stroke:none" transform="translate(453.57 427.702)" fill="#d6d6d6" data-original="#d6d6d6"></path><path d="M0 0h-471.314c-7.093 0-12.843 5.75-12.843 12.844 0 7.093 5.75 12.843 12.843 12.843H0c7.093 0 12.843-5.75 12.843-12.843C12.843 5.75 7.093 0 0 0" style="fill-opacity:1;fill-rule:nonzero;stroke:none" transform="translate(491.657 249.879)" fill="#f43b45" data-original="#f43b45"></path><path d="M0 0h-471.314c-7.093 0-12.843 5.75-12.843 12.844 0 7.093 5.75 12.843 12.843 12.843H0c7.093 0 12.843-5.75 12.843-12.843C12.843 5.75 7.093 0 0 0Z" style="stroke-width:15;stroke-linecap:round;stroke-linejoin:round;stroke-miterlimit:10;stroke-dasharray:none;stroke-opacity:1" transform="translate(491.657 249.879)" fill="none" stroke="#000000" stroke-width="15" stroke-linecap="round" stroke-linejoin="round" stroke-miterlimit="10" stroke-dasharray="none" stroke-opacity="" data-original="#000000" class=""></path><path d="M0 0v-62.153C0-73.25 8.996-82.246 20.092-82.246H444.77c11.096 0 20.092 8.996 20.092 20.093V-.417" style="stroke-width:15;stroke-linecap:round;stroke-linejoin:round;stroke-miterlimit:10;stroke-dasharray:none;stroke-opacity:1" transform="translate(23.581 171.667)" fill="none" stroke="#000000" stroke-width="15" stroke-linecap="round" stroke-linejoin="round" stroke-miterlimit="10" stroke-dasharray="none" stroke-opacity="" data-original="#000000" class=""></path><path d="M0 0c0-14.263-11.563-25.825-25.826-25.825S-51.651-14.263-51.651 0v35.206" style="stroke-width:15;stroke-linecap:round;stroke-linejoin:round;stroke-miterlimit:10;stroke-dasharray:none;stroke-opacity:1" transform="translate(75.233 214.673)" fill="none" stroke="#000000" stroke-width="15" stroke-linecap="round" stroke-linejoin="round" stroke-miterlimit="10" stroke-dasharray="none" stroke-opacity="" data-original="#000000" class=""></path><path d="M0 0v-35.206c0-14.263-11.563-25.825-25.826-25.825s-25.825 11.562-25.825 25.825V0" style="stroke-width:15;stroke-linecap:round;stroke-linejoin:round;stroke-miterlimit:10;stroke-dasharray:none;stroke-opacity:1" transform="translate(126.884 249.879)" fill="none" stroke="#000000" stroke-width="15" stroke-linecap="round" stroke-linejoin="round" stroke-miterlimit="10" stroke-dasharray="none" stroke-opacity="" data-original="#000000" class=""></path><path d="M0 0v-35.206c0-14.263-11.563-25.825-25.826-25.825s-25.825 11.562-25.825 25.825" style="stroke-width:15;stroke-linecap:round;stroke-linejoin:round;stroke-miterlimit:10;stroke-dasharray:none;stroke-opacity:1" transform="translate(178.536 249.879)" fill="none" stroke="#000000" stroke-width="15" stroke-linecap="round" stroke-linejoin="round" stroke-miterlimit="10" stroke-dasharray="none" stroke-opacity="" data-original="#000000" class=""></path><path d="M0 0v-35.206c0-14.263-11.563-25.825-25.826-25.825s-25.825 11.562-25.825 25.825" style="stroke-width:15;stroke-linecap:round;stroke-linejoin:round;stroke-miterlimit:10;stroke-dasharray:none;stroke-opacity:1" transform="translate(230.187 249.879)" fill="none" stroke="#000000" stroke-width="15" stroke-linecap="round" stroke-linejoin="round" stroke-miterlimit="10" stroke-dasharray="none" stroke-opacity="" data-original="#000000" class=""></path><path d="M0 0v-35.206c0-14.263-11.563-25.825-25.826-25.825s-25.825 11.562-25.825 25.825" style="stroke-width:15;stroke-linecap:round;stroke-linejoin:round;stroke-miterlimit:10;stroke-dasharray:none;stroke-opacity:1" transform="translate(281.838 249.879)" fill="none" stroke="#000000" stroke-width="15" stroke-linecap="round" stroke-linejoin="round" stroke-miterlimit="10" stroke-dasharray="none" stroke-opacity="" data-original="#000000" class=""></path><path d="M0 0v-35.206c0-14.263-11.563-25.825-25.825-25.825h-.001c-14.262 0-25.825 11.562-25.825 25.825" style="stroke-width:15;stroke-linecap:round;stroke-linejoin:round;stroke-miterlimit:10;stroke-dasharray:none;stroke-opacity:1" transform="translate(333.49 249.879)" fill="none" stroke="#000000" stroke-width="15" stroke-linecap="round" stroke-linejoin="round" stroke-miterlimit="10" stroke-dasharray="none" stroke-opacity="" data-original="#000000" class=""></path><path d="M0 0v-35.206c0-14.263-11.563-25.825-25.826-25.825s-25.825 11.562-25.825 25.825" style="stroke-width:15;stroke-linecap:round;stroke-linejoin:round;stroke-miterlimit:10;stroke-dasharray:none;stroke-opacity:1" transform="translate(385.14 249.879)" fill="none" stroke="#000000" stroke-width="15" stroke-linecap="round" stroke-linejoin="round" stroke-miterlimit="10" stroke-dasharray="none" stroke-opacity="" data-original="#000000" class=""></path><path d="M0 0v-35.206c0-14.263-11.563-25.825-25.826-25.825s-25.825 11.562-25.825 25.825" style="stroke-width:15;stroke-linecap:round;stroke-linejoin:round;stroke-miterlimit:10;stroke-dasharray:none;stroke-opacity:1" transform="translate(436.792 249.879)" fill="none" stroke="#000000" stroke-width="15" stroke-linecap="round" stroke-linejoin="round" stroke-miterlimit="10" stroke-dasharray="none" stroke-opacity="" data-original="#000000" class=""></path><path d="M0 0c0-14.263 11.563-25.825 25.826-25.825S51.651-14.263 51.651 0v35.206" style="stroke-width:15;stroke-linecap:round;stroke-linejoin:round;stroke-miterlimit:10;stroke-dasharray:none;stroke-opacity:1" transform="translate(436.792 214.673)" fill="none" stroke="#000000" stroke-width="15" stroke-linecap="round" stroke-linejoin="round" stroke-miterlimit="10" stroke-dasharray="none" stroke-opacity="" data-original="#000000" class=""></path><path d="M0 0v-48.473C0-55.386 5.604-60.99 12.518-60.99h6.193c6.914 0 12.518 5.604 12.518 12.517V0" style="stroke-width:15;stroke-linecap:round;stroke-linejoin:round;stroke-miterlimit:10;stroke-dasharray:none;stroke-opacity:1" transform="translate(62.362 89.42)" fill="none" stroke="#000000" stroke-width="15" stroke-linecap="round" stroke-linejoin="round" stroke-miterlimit="10" stroke-dasharray="none" stroke-opacity="" data-original="#000000" class=""></path><path d="M0 0v-48.611c0-6.913 5.604-12.518 12.518-12.518h6.193c6.914 0 12.518 5.605 12.518 12.518V0" style="stroke-width:15;stroke-linecap:round;stroke-linejoin:round;stroke-miterlimit:10;stroke-dasharray:none;stroke-opacity:1" transform="translate(418.92 89.42)" fill="none" stroke="#000000" stroke-width="15" stroke-linecap="round" stroke-linejoin="round" stroke-miterlimit="10" stroke-dasharray="none" stroke-opacity="" data-original="#000000" class=""></path><path d="M0 0h-190.456c-6.267 0-11.347 5.081-11.347 11.348s5.08 11.347 11.347 11.347H0c6.267 0 11.348-5.08 11.348-11.347C11.348 5.081 6.267 0 0 0Z" style="stroke-width:15;stroke-linecap:round;stroke-linejoin:round;stroke-miterlimit:10;stroke-dasharray:none;stroke-opacity:1" transform="translate(219.577 334.212)" fill="none" stroke="#000000" stroke-width="15" stroke-linecap="round" stroke-linejoin="round" stroke-miterlimit="10" stroke-dasharray="none" stroke-opacity="" data-original="#000000" class=""></path><path d="M0 0c-5.396 49.246-45.475 87.499-94.124 87.499-48.649 0-88.727-38.253-94.124-87.499" style="stroke-width:15;stroke-linecap:round;stroke-linejoin:round;stroke-miterlimit:10;stroke-dasharray:none;stroke-opacity:1" transform="translate(218.473 356.907)" fill="none" stroke="#000000" stroke-width="15" stroke-linecap="round" stroke-linejoin="round" stroke-miterlimit="10" stroke-dasharray="none" stroke-opacity="" data-original="#000000" class=""></path><path d="m0 0 4.668-18.031a11.79 11.79 0 0 1 11.415-8.837h146.121a11.792 11.792 0 0 1 11.415 8.837L178.287 0" style="stroke-width:15;stroke-linecap:round;stroke-linejoin:round;stroke-miterlimit:10;stroke-dasharray:none;stroke-opacity:1" transform="translate(35.206 334.212)" fill="none" stroke="#000000" stroke-width="15" stroke-linecap="round" stroke-linejoin="round" stroke-miterlimit="10" stroke-dasharray="none" stroke-opacity="" data-original="#000000" class=""></path><path d="M0 0h-190.456c-6.267 0-11.347 5.081-11.347 11.348s5.08 11.347 11.347 11.347H0c6.267 0 11.348-5.08 11.348-11.347C11.348 5.081 6.267 0 0 0Z" style="stroke-width:15;stroke-linecap:round;stroke-linejoin:round;stroke-miterlimit:10;stroke-dasharray:none;stroke-opacity:1" transform="translate(468.986 334.212)" fill="none" stroke="#000000" stroke-width="15" stroke-linecap="round" stroke-linejoin="round" stroke-miterlimit="10" stroke-dasharray="none" stroke-opacity="" data-original="#000000" class=""></path><path d="M0 0a3.369 3.369 0 0 1 1.73 4.793C-21.771 46.52-71.397 66.342-115.631 49.388c-45.427-17.411-69.16-67.474-56.575-115.39z" style="stroke-width:15;stroke-linecap:round;stroke-linejoin:round;stroke-miterlimit:10;stroke-dasharray:none;stroke-opacity:1" transform="translate(451.84 422.91)" fill="none" stroke="#000000" stroke-width="15" stroke-linecap="round" stroke-linejoin="round" stroke-miterlimit="10" stroke-dasharray="none" stroke-opacity="" data-original="#000000" class=""></path><path d="m0 0 4.667-18.031a11.792 11.792 0 0 1 11.416-8.837h146.121a11.792 11.792 0 0 1 11.415 8.837L178.287 0" style="stroke-width:15;stroke-linecap:round;stroke-linejoin:round;stroke-miterlimit:10;stroke-dasharray:none;stroke-opacity:1" transform="translate(284.615 334.212)" fill="none" stroke="#000000" stroke-width="15" stroke-linecap="round" stroke-linejoin="round" stroke-miterlimit="10" stroke-dasharray="none" stroke-opacity="" data-original="#000000" class=""></path><path d="M0 0a21.38 21.38 0 0 1 .32 6.768c-1.091 9.839-9.162 17.714-19.024 18.597-3.967.356-7.728-.392-11.016-1.969-5.174-2.481-11.321-1.262-15.543 2.624a24.541 24.541 0 0 1-17.722 6.479c-12.472-.52-22.753-10.575-23.528-23.033A24.684 24.684 0 0 1-85.262 0" style="stroke-width:15;stroke-linecap:round;stroke-linejoin:round;stroke-miterlimit:10;stroke-dasharray:none;stroke-opacity:1" transform="translate(463.022 356.907)" fill="none" stroke="#000000" stroke-width="15" stroke-linecap="round" stroke-linejoin="round" stroke-miterlimit="10" stroke-dasharray="none" stroke-opacity="" data-original="#000000" class=""></path></g></g></svg>